<svg id="Layer_1" data-name="Layer 1" xmlns="http://www.w3.org/2000/svg" viewBox="0 0 154 164"><defs><style>.cls-1{fill:#1b2d57;}.cls-2{fill:none;}</style></defs><title>절차안내_STEP1</title><path class="cls-1" d="M71.3,36.92h-28a.5.5,0,0,1-.5-.5.5.5,0,0,1,.5-.5h28a.5.5,0,0,1,.5.5A.5.5,0,0,1,71.3,36.92Z" transform="translate(-22.99 -17.67)"/><path class="cls-1" d="M82.19,36.92H77a.5.5,0,0,1-.5-.5.5.5,0,0,1,.5-.5h5.18a.5.5,0,0,1,.5.5A.5.5,0,0,1,82.19,36.92Z" transform="translate(-22.99 -17.67)"/><path class="cls-1" d="M67.46,147.83H43.29a.5.5,0,0,1-.5-.5.5.5,0,0,1,.5-.5H67.46a.5.5,0,0,1,.5.5A.5.5,0,0,1,67.46,147.83Z" transform="translate(-22.99 -17.67)"/><path class="cls-1" d="M67.46,161.82H43.29a.5.5,0,0,1-.5-.5.5.5,0,0,1,.5-.5H67.46a.5.5,0,0,1,.5.5A.5.5,0,0,1,67.46,161.82Z" transform="translate(-22.99 -17.67)"/><path class="cls-1" d="M127.63,54.1H43.29a.5.5,0,0,1-.5-.5.5.5,0,0,1,.5-.5h84.34a.5.5,0,0,1,.5.5A.5.5,0,0,1,127.63,54.1Z" transform="translate(-22.99 -17.67)"/><path class="cls-1" d="M127.63,68.09H43.29a.5.5,0,0,1-.5-.5.5.5,0,0,1,.5-.5h84.34a.5.5,0,0,1,.5.5A.5.5,0,0,1,127.63,68.09Z" transform="translate(-22.99 -17.67)"/><path class="cls-1" d="M127.63,82.08H43.29a.5.5,0,0,1,0-1h84.34a.5.5,0,0,1,0,1Z" transform="translate(-22.99 -17.67)"/><path class="cls-1" d="M106.57,96.07H43.29a.5.5,0,1,1,0-1h63.28a.5.5,0,0,1,0,1Z" transform="translate(-22.99 -17.67)"/><path class="cls-1" d="M106.57,110.06H43.29a.5.5,0,0,1-.5-.5.5.5,0,0,1,.5-.5h63.28a.5.5,0,0,1,.5.5A.5.5,0,0,1,106.57,110.06Z" transform="translate(-22.99 -17.67)"/><path class="cls-1" d="M82.1,124.05H43.29a.5.5,0,0,1-.5-.5.5.5,0,0,1,.5-.5H82.1a.51.51,0,0,1,.5.5A.5.5,0,0,1,82.1,124.05Z" transform="translate(-22.99 -17.67)"/><rect class="cls-2" x="129.04" y="105.59" width="3" height="18.76" transform="translate(-66.05 108.3) rotate(-45)"/><path class="cls-2" d="M83.23,161.48a.27.27,0,0,0,.06.25.3.3,0,0,0,.24.11l14-2.05a5.12,5.12,0,0,0,1.84-.68l-13-13.05a4.91,4.91,0,0,0-.7,1.78Z" transform="translate(-22.99 -17.67)"/><path class="cls-2" d="M100.39,158.37l35-35L122.14,110.1,87.05,145.18l-.06.08,13.24,13.25Z" transform="translate(-22.99 -17.67)"/><path class="cls-2" d="M139.64,120.54h0l-.71.7h0l-2.12,2.12h0l-.7.71h0l-35,35a6,6,0,0,1-3.37,1.69l-14,2.06h-.19a1.31,1.31,0,0,1-1.29-1.54l2.44-13.64a6,6,0,0,1,1.67-3.18l60.59-60.59V23.67a5,5,0,0,0-5-5H29a5,5,0,0,0-5,5v152a5,5,0,0,0,5,5h113a5,5,0,0,0,5-5V122.18L145.17,124a.52.52,0,0,1-.35.14.5.5,0,0,1-.35-.85l2.47-2.47v-7.53Z" transform="translate(-22.99 -17.67)"/><path class="cls-2" d="M173.94,74.93l-3.37-3.36a7,7,0,0,0-9.53-.34l13.23,13.23A7,7,0,0,0,173.94,74.93Z" transform="translate(-22.99 -17.67)"/><path class="cls-2" d="M170.8,96.9a2.21,2.21,0,0,0,.66-1.59,2.25,2.25,0,0,0-.66-1.6l-2.17-2.16-20.69,20.69v7.53Z" transform="translate(-22.99 -17.67)"/><path class="cls-1" d="M174.64,74.22l-3.36-3.36a8,8,0,0,0-11.31,0l-12,12V23.67a6,6,0,0,0-6-6H29a6,6,0,0,0-6,6v152a6,6,0,0,0,6,6h113a6,6,0,0,0,6-6V121.18l23.57-23.57a3.26,3.26,0,0,0,0-4.6l-2.17-2.17,5.3-5.3A8,8,0,0,0,174.64,74.22Zm-27.7,46.55-2.47,2.47a.5.5,0,0,0,.35.85.52.52,0,0,0,.35-.14l1.77-1.77v53.49a5,5,0,0,1-5,5H29a5,5,0,0,1-5-5v-152a5,5,0,0,1,5-5h113a5,5,0,0,1,5,5V83.89L86.35,144.48a6,6,0,0,0-1.67,3.18L82.24,161.3a1.31,1.31,0,0,0,1.29,1.54h.19l14-2.06a6,6,0,0,0,3.37-1.69l35-35h0l.7-.71h0l2.12-2.12h0l.71-.7h0l7.3-7.3ZM87,145.26l.06-.08,35.09-35.08,13.26,13.26-35,35-.16.14Zm12.43,13.85a5.12,5.12,0,0,1-1.84.68l-14,2.05a.3.3,0,0,1-.24-.11.27.27,0,0,1-.06-.25l2.44-13.64a4.91,4.91,0,0,1,.7-1.78Zm23.42-49.72,2.13-2.12,13.26,13.27-2.12,2.12Zm48-15.68a2.25,2.25,0,0,1,.66,1.6,2.21,2.21,0,0,1-.66,1.59l-22.86,22.87v-7.53l20.69-20.69Zm-22.86,17.12-1,1-8,8-13.26-13.26L146.94,85.3l1-1,12.38-12.38,13.26,13.26ZM161,71.23a7,7,0,0,1,9.53.34l3.37,3.36a7,7,0,0,1,.33,9.53Z" transform="translate(-22.99 -17.67)"/></svg>