<svg id="Layer_1" data-name="Layer 1" xmlns="http://www.w3.org/2000/svg" viewBox="0 0 168 164"><defs><style>.cls-1{fill:#1b2d57;}</style></defs><title>절차안내_STEP2</title><path class="cls-1" d="M177.67,61h-23V23.86a6,6,0,0,0-6-6h-98a6,6,0,0,0-6,6V61h-23a6,6,0,0,0-6,6v78.56a6,6,0,0,0,6,6h13v12.61a5.47,5.47,0,0,0,5.47,5.47h4.53v4.81A7.31,7.31,0,0,0,52,181.85h95.37a7.31,7.31,0,0,0,7.31-7.31v-4.81h4.54a5.46,5.46,0,0,0,5.46-5.47V151.65h13a6,6,0,0,0,6-6V67.07A6,6,0,0,0,177.67,61Zm-132-37.18a5,5,0,0,1,5-5h98a5,5,0,0,1,5,5V61h-108Zm-1,144.87H40.14a4.48,4.48,0,0,1-4.47-4.47V138.85h-1v11.8h-13a5,5,0,0,1-5-5v-28.2h28Zm109,0v5.81a6.32,6.32,0,0,1-6.31,6.31H52a6.32,6.32,0,0,1-6.32-6.31V117.43h108Zm29-23.1a5,5,0,0,1-5,5h-13v-11.8h-1v25.41a4.47,4.47,0,0,1-4.46,4.47h-4.54v-51.3h28Zm0-29.2h-166V67.07a5,5,0,0,1,5-5h156a5,5,0,0,1,5,5Z" transform="translate(-15.67 -17.85)"/><path class="cls-1" d="M66,35.88h36.72a.5.5,0,0,0,.5-.5.5.5,0,0,0-.5-.5H66a.5.5,0,0,0-.5.5A.5.5,0,0,0,66,35.88Z" transform="translate(-15.67 -17.85)"/><path class="cls-1" d="M133.33,47.94H66a.5.5,0,0,0-.5.5.5.5,0,0,0,.5.5h67.32a.5.5,0,0,0,.5-.5A.5.5,0,0,0,133.33,47.94Z" transform="translate(-15.67 -17.85)"/><path class="cls-1" d="M66,137.41h67.32a.5.5,0,0,0,.5-.5.5.5,0,0,0-.5-.5H66a.5.5,0,0,0-.5.5A.5.5,0,0,0,66,137.41Z" transform="translate(-15.67 -17.85)"/><path class="cls-1" d="M66,148h67.32a.5.5,0,0,0,.5-.5.5.5,0,0,0-.5-.5H66a.5.5,0,0,0-.5.5A.5.5,0,0,0,66,148Z" transform="translate(-15.67 -17.85)"/><path class="cls-1" d="M66,158.64h67.32a.5.5,0,1,0,0-1H66a.5.5,0,1,0,0,1Z" transform="translate(-15.67 -17.85)"/><path class="cls-1" d="M154.26,75a13.51,13.51,0,1,0,13.46,13.5A13.5,13.5,0,0,0,154.26,75Zm0,26a12.51,12.51,0,1,1,12.46-12.51A12.5,12.5,0,0,1,154.26,101.05Z" transform="translate(-15.67 -17.85)"/><path class="cls-1" d="M36,72.41H31.69a1.75,1.75,0,0,0-1.75,1.75v4.3a1.76,1.76,0,0,0,1.75,1.75H36a1.76,1.76,0,0,0,1.75-1.75v-4.3A1.75,1.75,0,0,0,36,72.41Zm.75,6a.76.76,0,0,1-.75.75H31.69a.76.76,0,0,1-.75-.75v-4.3a.75.75,0,0,1,.75-.75H36a.75.75,0,0,1,.75.75Z" transform="translate(-15.67 -17.85)"/><path class="cls-1" d="M46.42,72.41H42.15a1.75,1.75,0,0,0-1.75,1.75v4.3a1.75,1.75,0,0,0,1.75,1.75h4.27a1.75,1.75,0,0,0,1.75-1.75v-4.3A1.75,1.75,0,0,0,46.42,72.41Zm.75,6a.75.75,0,0,1-.75.75H42.15a.75.75,0,0,1-.75-.75v-4.3a.74.74,0,0,1,.75-.75h4.27a.74.74,0,0,1,.75.75Z" transform="translate(-15.67 -17.85)"/><path class="cls-1" d="M56.88,72.41H52.61a1.75,1.75,0,0,0-1.76,1.75v4.3a1.76,1.76,0,0,0,1.76,1.75h4.27a1.75,1.75,0,0,0,1.75-1.75v-4.3A1.75,1.75,0,0,0,56.88,72.41Zm.75,6a.75.75,0,0,1-.75.75H52.61a.76.76,0,0,1-.76-.75v-4.3a.75.75,0,0,1,.76-.75h4.27a.74.74,0,0,1,.75.75Z" transform="translate(-15.67 -17.85)"/><path class="cls-1" d="M36,85.31H31.69a1.75,1.75,0,0,0-1.75,1.75v4.3a1.76,1.76,0,0,0,1.75,1.75H36a1.76,1.76,0,0,0,1.75-1.75v-4.3A1.75,1.75,0,0,0,36,85.31Zm.75,6a.76.76,0,0,1-.75.75H31.69a.76.76,0,0,1-.75-.75v-4.3a.76.76,0,0,1,.75-.75H36a.76.76,0,0,1,.75.75Z" transform="translate(-15.67 -17.85)"/><path class="cls-1" d="M46.42,85.31H42.15a1.75,1.75,0,0,0-1.75,1.75v4.3a1.75,1.75,0,0,0,1.75,1.75h4.27a1.75,1.75,0,0,0,1.75-1.75v-4.3A1.75,1.75,0,0,0,46.42,85.31Zm.75,6a.75.75,0,0,1-.75.75H42.15a.75.75,0,0,1-.75-.75v-4.3a.75.75,0,0,1,.75-.75h4.27a.75.75,0,0,1,.75.75Z" transform="translate(-15.67 -17.85)"/><path class="cls-1" d="M56.88,85.31H52.61a1.75,1.75,0,0,0-1.76,1.75v4.3a1.76,1.76,0,0,0,1.76,1.75h4.27a1.75,1.75,0,0,0,1.75-1.75v-4.3A1.75,1.75,0,0,0,56.88,85.31Zm.75,6a.75.75,0,0,1-.75.75H52.61a.76.76,0,0,1-.76-.75v-4.3a.76.76,0,0,1,.76-.75h4.27a.75.75,0,0,1,.75.75Z" transform="translate(-15.67 -17.85)"/><path class="cls-1" d="M36,98.21H31.69A1.75,1.75,0,0,0,29.94,100v4.3A1.75,1.75,0,0,0,31.69,106H36a1.75,1.75,0,0,0,1.75-1.75V100A1.75,1.75,0,0,0,36,98.21Zm.75,6.05A.76.76,0,0,1,36,105H31.69a.76.76,0,0,1-.75-.75V100a.76.76,0,0,1,.75-.75H36a.76.76,0,0,1,.75.75Z" transform="translate(-15.67 -17.85)"/><path class="cls-1" d="M46.42,98.21H42.15A1.75,1.75,0,0,0,40.4,100v4.3A1.75,1.75,0,0,0,42.15,106h4.27a1.75,1.75,0,0,0,1.75-1.75V100A1.75,1.75,0,0,0,46.42,98.21Zm.75,6.05a.75.75,0,0,1-.75.75H42.15a.75.75,0,0,1-.75-.75V100a.75.75,0,0,1,.75-.75h4.27a.75.75,0,0,1,.75.75Z" transform="translate(-15.67 -17.85)"/><path class="cls-1" d="M56.88,98.21H52.61A1.75,1.75,0,0,0,50.85,100v4.3A1.75,1.75,0,0,0,52.61,106h4.27a1.75,1.75,0,0,0,1.75-1.75V100A1.75,1.75,0,0,0,56.88,98.21Zm.75,6.05a.75.75,0,0,1-.75.75H52.61a.76.76,0,0,1-.76-.75V100a.76.76,0,0,1,.76-.75h4.27a.75.75,0,0,1,.75.75Z" transform="translate(-15.67 -17.85)"/><path class="cls-1" d="M123.32,78.5H76A6.52,6.52,0,0,0,69.51,85V95.22A6.52,6.52,0,0,0,76,101.73h47.3a6.52,6.52,0,0,0,6.51-6.51V85A6.52,6.52,0,0,0,123.32,78.5Zm5.51,16.72a5.52,5.52,0,0,1-5.51,5.51H76a5.51,5.51,0,0,1-5.51-5.51V85A5.51,5.51,0,0,1,76,79.5h47.3A5.52,5.52,0,0,1,128.83,85Z" transform="translate(-15.67 -17.85)"/></svg>