<svg id="Layer_1" data-name="Layer 1" xmlns="http://www.w3.org/2000/svg" viewBox="0 0 147 174"><defs><style>.cls-1{fill:#1b2d57;}</style></defs><title>절차안내_STEP3</title><path class="cls-1" d="M173.16,180c-2.08-35.89-22.29-67.33-50.39-78.6a42.87,42.87,0,0,0,7.33-5.95h3.43a16.45,16.45,0,0,0,15.59-11.08,7.37,7.37,0,0,0,1.81.24,7.55,7.55,0,0,0,2.83-.56,18.06,18.06,0,0,0,11.41-17.24,18.06,18.06,0,0,0-11.41-17.24,7.49,7.49,0,0,0-3.79-.49c-3.79-20.67-25.31-36.21-50.3-36.21S53.16,28.39,49.36,49.06a7.5,7.5,0,0,0-3.79.49A18.08,18.08,0,0,0,34.16,66.79,18.08,18.08,0,0,0,45.57,84a7.59,7.59,0,0,0,2.83.56,7.29,7.29,0,0,0,4.07-1.24,6.26,6.26,0,0,0,2.89-5.25V55.49a6.26,6.26,0,0,0-2.89-5.26,7.19,7.19,0,0,0-2.13-1C54,29,75.14,13.85,99.67,13.85S145.29,29,149,49.26a7.3,7.3,0,0,0-2.13,1A6.26,6.26,0,0,0,144,55.49V78.1a6.26,6.26,0,0,0,2.89,5.25,7.1,7.1,0,0,0,1.31.68,15.44,15.44,0,0,1-14.64,10.4h-2.48a42.76,42.76,0,1,0-54.49,6.95c-28.1,11.27-48.3,42.71-50.38,78.6a6.5,6.5,0,0,0,6.49,6.87h134a6.5,6.5,0,0,0,6.5-6.87ZM54.36,55.49V78.1a5.28,5.28,0,0,1-2.45,4.42,6.32,6.32,0,0,1-6,.58A17.08,17.08,0,0,1,35.16,66.79,17.08,17.08,0,0,1,46,50.48,6.38,6.38,0,0,1,48.4,50a6.25,6.25,0,0,1,3.51,1.07A5.28,5.28,0,0,1,54.36,55.49ZM145,78.1V55.49a5.28,5.28,0,0,1,2.45-4.43A6.25,6.25,0,0,1,150.93,50a6.34,6.34,0,0,1,2.45.49,17.08,17.08,0,0,1,10.79,16.31A17.08,17.08,0,0,1,153.38,83.1a6.32,6.32,0,0,1-6-.58A5.28,5.28,0,0,1,145,78.1ZM57.9,65.41a41.77,41.77,0,1,1,71.77,29H114.76a4.29,4.29,0,0,0-4.25-3.81h-8.39a4.31,4.31,0,0,0-4.3,4.31v.84a4.31,4.31,0,0,0,4.3,4.31h8.39a4.31,4.31,0,0,0,4.3-4.31v-.34h13.86a41.73,41.73,0,0,1-70.77-30Zm55.91,29.52v.84a3.31,3.31,0,0,1-3.3,3.31h-8.39a3.31,3.31,0,0,1-3.3-3.31v-.84a3.31,3.31,0,0,1,3.3-3.31h8.39A3.31,3.31,0,0,1,113.81,94.93Zm56.86,89.19a5.45,5.45,0,0,1-4,1.73h-134A5.49,5.49,0,0,1,27.18,180c2.07-35.8,22.32-67.1,50.41-78a42.69,42.69,0,0,0,44.15,0c28.09,10.9,48.35,42.21,50.42,78A5.42,5.42,0,0,1,170.67,184.12Z" transform="translate(-26.17 -12.85)"/></svg>