<svg id="Layer_1" data-name="Layer 1" xmlns="http://www.w3.org/2000/svg" viewBox="0 0 170 135"><defs><style>.cls-1{fill:#1b2d57;}</style></defs><title>절차안내_STEP4</title><path class="cls-1" d="M67,118.59a15.29,15.29,0,1,0-17.5,0c-8.34,3.6-14.7,12.17-16.7,22.65a6.38,6.38,0,0,0,1.37,5.26,6.52,6.52,0,0,0,5,2.38H77.31a6.52,6.52,0,0,0,5-2.38,6.34,6.34,0,0,0,1.36-5.26C81.72,130.76,75.36,122.19,67,118.59ZM44,106.07a14.29,14.29,0,1,1,14.29,14.29A14.31,14.31,0,0,1,44,106.07Zm37.6,39.8a5.55,5.55,0,0,1-4.27,2H39.23a5.55,5.55,0,0,1-4.27-2,5.38,5.38,0,0,1-1.15-4.44c2-10.42,8.38-18.9,16.73-22.19a15.15,15.15,0,0,0,15.46,0c8.35,3.29,14.75,11.77,16.73,22.19A5.38,5.38,0,0,1,81.58,145.87Z" transform="translate(-15.2 -34.83)"/><path class="cls-1" d="M100.2,94.22h12.46a.5.5,0,0,0,.5-.5.5.5,0,0,0-.5-.5H100.2a.5.5,0,0,0-.5.5A.5.5,0,0,0,100.2,94.22Z" transform="translate(-15.2 -34.83)"/><path class="cls-1" d="M167.59,93.22H120a.51.51,0,0,0-.5.5.5.5,0,0,0,.5.5h47.62a.5.5,0,0,0,.5-.5A.5.5,0,0,0,167.59,93.22Z" transform="translate(-15.2 -34.83)"/><path class="cls-1" d="M100.2,106.57h12.46a.5.5,0,0,0,0-1H100.2a.5.5,0,1,0,0,1Z" transform="translate(-15.2 -34.83)"/><path class="cls-1" d="M167.59,122.89H100.2a.5.5,0,0,0-.5.5.5.5,0,0,0,.5.5h67.39a.5.5,0,0,0,.5-.5A.5.5,0,0,0,167.59,122.89Z" transform="translate(-15.2 -34.83)"/><path class="cls-1" d="M167.59,130.93H100.2a.5.5,0,0,0-.5.5.5.5,0,0,0,.5.5h67.39a.5.5,0,0,0,.5-.5A.5.5,0,0,0,167.59,130.93Z" transform="translate(-15.2 -34.83)"/><path class="cls-1" d="M167.59,139H100.2a.5.5,0,0,0-.5.5.5.5,0,0,0,.5.5h67.39a.5.5,0,0,0,.5-.5A.5.5,0,0,0,167.59,139Z" transform="translate(-15.2 -34.83)"/><path class="cls-1" d="M167.59,147H100.2a.5.5,0,0,0-.5.5.5.5,0,0,0,.5.5h67.39a.5.5,0,0,0,.5-.5A.5.5,0,0,0,167.59,147Z" transform="translate(-15.2 -34.83)"/><path class="cls-1" d="M167.59,105.57H120a.5.5,0,0,0,0,1h47.62a.5.5,0,0,0,0-1Z" transform="translate(-15.2 -34.83)"/><path class="cls-1" d="M100.2,57.27a8.49,8.49,0,1,0-8.49-8.49A8.5,8.5,0,0,0,100.2,57.27Zm0-16a7.49,7.49,0,1,1-7.49,7.49A7.5,7.5,0,0,1,100.2,41.29Z" transform="translate(-15.2 -34.83)"/><path class="cls-1" d="M178.7,62.58H115.28V41.33a6.51,6.51,0,0,0-6.5-6.5H91.61a6.51,6.51,0,0,0-6.5,6.5V62.58H21.7a6.5,6.5,0,0,0-6.5,6.5v94.26a6.51,6.51,0,0,0,6.5,6.5h157a6.51,6.51,0,0,0,6.5-6.5V69.08A6.51,6.51,0,0,0,178.7,62.58ZM86.11,41.33a5.51,5.51,0,0,1,5.5-5.5h17.17a5.5,5.5,0,0,1,5.5,5.5V66.82a5.5,5.5,0,0,1-5.5,5.5H91.61a5.51,5.51,0,0,1-5.5-5.5Zm98.09,122a5.51,5.51,0,0,1-5.5,5.5H21.7a5.51,5.51,0,0,1-5.5-5.5V69.08a5.51,5.51,0,0,1,5.5-5.5H85.11v3.24a6.51,6.51,0,0,0,6.5,6.5h17.17a6.5,6.5,0,0,0,6.5-6.5V63.58H178.7a5.51,5.51,0,0,1,5.5,5.5Z" transform="translate(-15.2 -34.83)"/></svg>